mtllib lowpoly_toucan.mtl
o LowPolyToucan
usemtl ToucanMaterial
v -1.0000 -0.7000 -0.6000
v 1.0000 -0.7000 -0.6000
v 1.0000 0.7000 -0.6000
v -1.0000 0.7000 -0.6000
v -1.0000 -0.7000 0.6000
v 1.0000 -0.7000 0.6000
v 1.0000 0.7000 0.6000
v -1.0000 0.7000 0.6000
v 0.9000 0.0500 -0.4500
v 1.9000 0.0500 -0.4500
v 1.9000 0.9500 -0.4500
v 0.9000 0.9500 -0.4500
v 0.9000 0.0500 0.4500
v 1.9000 0.0500 0.4500
v 1.9000 0.9500 0.4500
v 0.9000 0.9500 0.4500
v 1.5000 0.3750 -0.2250
v 3.3000 0.3750 -0.2250
v 3.3000 0.7250 -0.2250
v 1.5000 0.7250 -0.2250
v 1.5000 0.3750 0.2250
v 3.3000 0.3750 0.2250
v 3.3000 0.7250 0.2250
v 1.5000 0.7250 0.2250
v -0.7000 -0.0750 -1.4000
v 0.5000 -0.0750 -1.4000
v 0.5000 0.0750 -1.4000
v -0.7000 0.0750 -1.4000
v -0.7000 -0.0750 -0.4000
v 0.5000 -0.0750 -0.4000
v 0.5000 0.0750 -0.4000
v -0.7000 0.0750 -0.4000
v -0.7000 -0.0750 0.4000
v 0.5000 -0.0750 0.4000
v 0.5000 0.0750 0.4000
v -0.7000 0.0750 0.4000
v -0.7000 -0.0750 1.4000
v 0.5000 -0.0750 1.4000
v 0.5000 0.0750 1.4000
v -0.7000 0.0750 1.4000
v -2.0000 -0.2000 -0.2500
v -1.0000 -0.2000 -0.2500
v -1.0000 0.0000 -0.2500
v -2.0000 0.0000 -0.2500
v -2.0000 -0.2000 0.2500
v -1.0000 -0.2000 0.2500
v -1.0000 0.0000 0.2500
v -2.0000 0.0000 0.2500
v 0.1100 -1.5000 -0.3400
v 0.2900 -1.5000 -0.3400
v 0.2900 -0.5000 -0.3400
v 0.1100 -0.5000 -0.3400
v 0.1100 -1.5000 -0.1600
v 0.2900 -1.5000 -0.1600
v 0.2900 -0.5000 -0.1600
v 0.1100 -0.5000 -0.1600
v 0.1100 -1.5000 0.1600
v 0.2900 -1.5000 0.1600
v 0.2900 -0.5000 0.1600
v 0.1100 -0.5000 0.1600
v 0.1100 -1.5000 0.3400
v 0.2900 -1.5000 0.3400
v 0.2900 -0.5000 0.3400
v 0.1100 -0.5000 0.3400
v 0.0000 -1.6000 -0.4000
v 0.4000 -1.6000 -0.4000
v 0.4000 -1.5000 -0.4000
v 0.0000 -1.5000 -0.4000
v 0.0000 -1.6000 -0.1000
v 0.4000 -1.6000 -0.1000
v 0.4000 -1.5000 -0.1000
v 0.0000 -1.5000 -0.1000
v 0.0000 -1.6000 0.1000
v 0.4000 -1.6000 0.1000
v 0.4000 -1.5000 0.1000
v 0.0000 -1.5000 0.1000
v 0.0000 -1.6000 0.4000
v 0.4000 -1.6000 0.4000
v 0.4000 -1.5000 0.4000
v 0.0000 -1.5000 0.4000
f 1 2 3
f 1 3 4
f 5 6 7
f 5 7 8
f 1 2 6
f 1 6 5
f 3 4 8
f 3 8 7
f 2 3 7
f 2 7 6
f 1 4 8
f 1 8 5
f 9 10 11
f 9 11 12
f 13 14 15
f 13 15 16
f 9 10 14
f 9 14 13
f 11 12 16
f 11 16 15
f 10 11 15
f 10 15 14
f 9 12 16
f 9 16 13
f 17 18 19
f 17 19 20
f 21 22 23
f 21 23 24
f 17 18 22
f 17 22 21
f 19 20 24
f 19 24 23
f 18 19 23
f 18 23 22
f 17 20 24
f 17 24 21
f 25 26 27
f 25 27 28
f 29 30 31
f 29 31 32
f 25 26 30
f 25 30 29
f 27 28 32
f 27 32 31
f 26 27 31
f 26 31 30
f 25 28 32
f 25 32 29
f 33 34 35
f 33 35 36
f 37 38 39
f 37 39 40
f 33 34 38
f 33 38 37
f 35 36 40
f 35 40 39
f 34 35 39
f 34 39 38
f 33 36 40
f 33 40 37
f 41 42 43
f 41 43 44
f 45 46 47
f 45 47 48
f 41 42 46
f 41 46 45
f 43 44 48
f 43 48 47
f 42 43 47
f 42 47 46
f 41 44 48
f 41 48 45
f 49 50 51
f 49 51 52
f 53 54 55
f 53 55 56
f 49 50 54
f 49 54 53
f 51 52 56
f 51 56 55
f 50 51 55
f 50 55 54
f 49 52 56
f 49 56 53
f 57 58 59
f 57 59 60
f 61 62 63
f 61 63 64
f 57 58 62
f 57 62 61
f 59 60 64
f 59 64 63
f 58 59 63
f 58 63 62
f 57 60 64
f 57 64 61
f 65 66 67
f 65 67 68
f 69 70 71
f 69 71 72
f 65 66 70
f 65 70 69
f 67 68 72
f 67 72 71
f 66 67 71
f 66 71 70
f 65 68 72
f 65 72 69
f 73 74 75
f 73 75 76
f 77 78 79
f 77 79 80
f 73 74 78
f 73 78 77
f 75 76 80
f 75 80 79
f 74 75 79
f 74 79 78
f 73 76 80
f 73 80 77